<svg width="74" height="92" viewBox="0 0 74 92" fill="none" xmlns="http://www.w3.org/2000/svg">
<path d="M73.007 1.78652L61.0577 0.0188083C60.7042 -0.0519002 60.3506 0.0895081 60.2092 0.230925L55.1184 6.87752C54.7649 7.30177 54.6942 7.86744 54.8356 8.3624C54.977 8.85736 54.5528 9.28162 54.0578 9.21091L49.8862 8.29169C49.2498 8.15027 48.5427 8.36241 48.1185 8.92808L31.5733 30.1406C31.2905 30.5649 30.7249 30.7063 30.2299 30.4942L23.9371 27.6658C23.3715 27.383 22.7351 27.4537 22.2402 27.8072L19.0584 29.9992C18.5635 30.3527 17.8564 30.4235 17.2908 30.1406L15.7352 29.3628C14.7454 28.8679 13.5434 29.4335 13.2605 30.4942L12.1292 35.5145C11.8464 36.7165 12.3414 37.9186 13.4019 38.5549L15.8059 40.0398L23.5129 44.7773L27.2603 47.1107C28.3209 47.747 29.6643 47.6056 30.5835 46.8278L36.8763 41.3126C37.3712 40.8883 38.149 40.7469 38.7146 41.1004L40.6237 42.0904C41.2601 42.4439 42.0378 42.3025 42.5328 41.8075L45.7145 38.8378C46.2095 38.3428 46.9872 38.2721 47.5529 38.5549L52.2902 40.7469C52.9972 41.1004 53.8457 40.8883 54.3406 40.2519L56.5325 37.4236L73.1484 16.1403C73.9261 15.1504 73.4312 13.6655 72.1585 13.3827L68.4818 12.5342C67.704 12.3928 67.3505 11.4029 67.9161 10.8372L73.6433 3.69564C74.209 2.84713 73.8554 1.92794 73.007 1.78652Z" fill="white"/>
<path d="M18.2099 44.6359C17.8564 44.4237 17.5028 44.7773 17.6442 45.1308L19.4119 49.7976C19.5533 50.1511 19.5533 50.5047 19.4826 50.8582L17.9271 56.9391C17.8563 57.3634 17.9978 57.7876 18.2806 57.9997L22.7351 61.4645C23.1593 61.7473 23.7249 61.7473 24.0785 61.3938L28.745 57.2927C29.0279 57.0805 29.3814 56.9391 29.6642 56.8684L34.9672 56.3028C35.3207 56.2321 35.4621 55.7371 35.1086 55.5249L18.2099 44.6359Z" fill="white"/>
<path d="M16.6544 60.3332C16.3716 60.121 15.9474 60.0503 15.5938 60.1917L11.8464 62.0301C11.6343 62.1008 11.4929 62.313 11.3515 62.5251L3.36172 82.2528C3.36172 82.3235 3.36172 82.3235 3.36172 82.3942C3.43243 82.4649 3.50313 82.5356 3.64454 82.5356L5.4829 81.8285C5.55361 81.8285 5.6243 81.8285 5.69501 81.8285C5.76571 81.8992 5.83642 82.0407 5.76572 82.1114L0.0385401 91.5156C-0.102872 91.7277 0.179958 91.9398 0.32137 91.7277L21.0382 70.9394C21.2503 70.7273 21.321 70.5152 21.3917 70.2323L21.8159 64.8585C21.8159 64.5049 21.6745 64.2221 21.4624 64.01L16.6544 60.3332Z" fill="white"/>
</svg>
