<svg width="387" height="50" viewBox="0 0 387 50" fill="none" xmlns="http://www.w3.org/2000/svg">
<path d="M7.3534 11.3133C3.32317 11.3133 0 14.5659 0 18.667V34.2229V49.7787H7.3534V34.2229V18.667H16.1209H24.8884V11.3133H16.1209H7.3534Z" fill="white"/>
<path d="M68.7259 30.4753V18.5963C68.7259 14.5659 65.4735 11.2426 61.3725 11.2426H49.494H37.6154C33.5851 11.2426 30.262 14.4952 30.262 18.5963V30.4753V42.3543C30.262 46.3847 33.5144 49.708 37.6154 49.708H49.494H61.3725C65.4028 49.708 68.7259 46.4554 68.7259 42.3543V30.4753ZM61.3725 30.4753V42.3543H49.494H37.6154V30.4753V18.5963H49.494H61.3725V30.4753Z" fill="white"/>
<path d="M83.4327 11.3133C79.4025 11.3133 76.0793 14.5659 76.0793 18.667V30.546V42.4251C76.0793 46.4555 79.3318 49.7787 83.4327 49.7787L109.311 49.4252V42.4251H83.4327V30.546V18.667H109.311V11.6669L83.4327 11.3133Z" fill="white"/>
<path d="M151.452 11.3133H141.482L126.917 26.7985H124.018V11.3133H116.665V30.4753V49.708H124.018V34.1522H127.695H128.26L143.391 49.708H153.502L134.058 29.6268L151.452 11.3133Z" fill="white"/>
<path d="M162.411 42.3543V34.1522L193.522 33.7986V26.7985V18.5963C193.522 14.5659 190.269 11.2426 186.168 11.2426H174.29H162.411C158.381 11.2426 155.058 14.4952 155.058 18.5963V30.4753V42.3543C155.058 46.3847 158.31 49.708 162.411 49.708L193.522 49.3545V42.3543H162.411ZM162.411 18.5963H174.29H186.168V26.7985H177.967H162.411V18.5963Z" fill="white"/>
<path d="M211.976 0.070694H209.148L204.623 5.65668V11.2426H199.037V18.5963L204.623 18.5256V42.3544C204.623 46.3847 207.875 49.708 211.976 49.708L223.855 49.3545V42.3544H211.976V18.4549L224.915 18.2428V11.2426H211.976V0.070694Z" fill="white"/>
<path d="M263.662 34.1522C263.662 30.1218 260.41 26.7985 256.309 26.7985H247.046H237.784V18.5963H263.662V11.5962L237.784 11.2426C233.753 11.2426 230.43 14.4952 230.43 18.5963V26.7985C230.43 30.8289 233.683 34.1522 237.784 34.1522H247.046H256.309V42.3543H230.43V49.3545L256.309 49.708C260.339 49.708 263.662 46.4554 263.662 42.3543V34.1522Z" fill="white"/>
<path d="M302.055 11.3133H290.177H278.298C274.268 11.3133 270.945 14.5659 270.945 18.667V30.546V42.4251C270.945 46.4555 274.197 49.7787 278.298 49.7787L309.409 49.4252V42.4251H278.298V34.2229L309.409 33.8693V26.8692V18.667C309.409 14.5659 306.156 11.3133 302.055 11.3133ZM302.055 26.7985H278.298V18.5963H290.177H302.055V26.7985Z" fill="white"/>
<path d="M347.873 11.3133L316.762 11.6669V18.667H347.873V26.8692L316.762 27.2228V34.2229V42.4251C316.762 46.4555 320.015 49.7787 324.116 49.7787H335.994H347.873C351.903 49.7787 355.226 46.5262 355.226 42.4251V30.546V18.667C355.155 14.5659 351.903 11.3133 347.873 11.3133ZM347.873 42.3543H335.994H324.116V34.1522H347.873V42.3543Z" fill="white"/>
<path d="M373.61 18.4549L386.549 18.2428V11.2426H373.61V0H370.782L366.256 5.58597V11.1719H360.671V18.5256L366.256 18.4549V42.2837C366.256 46.314 369.509 49.6374 373.61 49.6374L385.488 49.2838V42.2837H373.61V18.4549Z" fill="white"/>
</svg>
